<svg xmlns="http://www.w3.org/2000/svg" fill="none" viewBox="0 0 345 345">
  <path fill="#ADFF2F" d="M0 0h345v345H0z"/>
  <path fill="#000" d="M74.919 168H11.05V13.3h63.869c20.9213 0 38.601 7.293 53.04 21.879 14.586 14.4387 21.879 32.8553 21.879 55.25 0 22.395-7.293 40.959-21.879 55.692C113.52 160.707 95.8403 168 74.919 168Zm-2.21-118.235H48.62v81.77h24.089c11.05 0 20.4057-3.831 28.067-11.492 7.661-7.809 11.492-17.68 11.492-29.614 0-11.934-3.831-21.658-11.492-29.172-7.6613-7.6613-17.017-11.492-28.067-11.492ZM211.72 89.987c0 12.965 4.125 23.647 12.376 32.045 8.25 8.251 18.416 12.376 30.498 12.376 12.081 0 22.247-4.125 30.498-12.376 8.25-8.398 12.376-19.08 12.376-32.045 0-12.6707-4.199-23.0577-12.597-31.161-8.251-8.2507-18.343-12.376-30.277-12.376-11.934 0-22.1 4.1253-30.498 12.376-8.251 8.1033-12.376 18.4903-12.376 31.161Zm-37.57 0c0-23.5733 7.735-42.9477 23.205-58.123C212.972 16.5413 232.052 8.88 254.594 8.88c22.542 0 41.548 7.6613 57.018 22.984 15.617 15.1753 23.426 34.5497 23.426 58.123 0 23.721-7.809 43.316-23.426 58.786-15.47 15.47-34.476 23.205-57.018 23.205s-41.622-7.735-57.239-23.205c-15.47-15.47-23.205-35.065-23.205-58.786ZM48.62 340H11.05V185.3h37.57V340ZM188 185h39v155h-39V185Z"/>
  <path fill="#000" d="M71 224v-39h265v39H71Z"/>
</svg>
